# AST/ASF file generated using VICON BodyLanguage
# -----------------------------------------------
:version 1.10
:name VICON
:units
  mass 1.0
  length 0.45
  angle deg
:documentation
   .ast/.asf automatically generated from VICON data using
   VICON BodyBuilder and BodyLanguage model FoxedUp or BRILLIANT.MOD
:root
   order TX TY TZ RX RY RZ
   axis XYZ
   position 0 0 0  
   orientation 0 0 0 
:bonedata
  begin
     id 1 
     name lhipjoint
     direction 0.692814 -0.645514 0.321437 
     length 2.38754 
     axis 0 0 0  XYZ
  end
  begin
     id 2 
     name lfemur
     direction 0.34202 -0.939693 0  
     length 6.41921  
     axis 0 0 20  XYZ
    dof rx ry rz
    limits (-160.0 20.0)
           (-70.0 70.0)
           (-60.0 70.0)
  end
  begin
     id 3 
     name ltibia
     direction 0.34202 -0.939693 0   
     length 6.98247   
     axis 0 0 20   XYZ
    dof rx
    limits (-10.0 170.0)
  end
  begin
     id 4 
     name lfoot
     direction 0.0947186 -0.260237 0.960888   
     length 1.83034   
     axis -90 7.62852e-016 20   XYZ
    dof rx rz
    limits (-45.0 90.0)
           (-70.0 20.0)
  end
  begin
     id 5 
     name ltoes
     direction 1.53538e-011 -4.21952e-011 1   
     length 0.920499   
     axis -90 7.62852e-016 20   XYZ
    dof rx
    limits (-90.0 20.0)
  end
  begin
     id 6 
     name rhipjoint
     direction -0.631686 -0.693949 0.345555   
     length 2.2209  
     axis 0 0 0  XYZ 
  end
  begin
     id 7 
     name rfemur
     direction -0.34202 -0.939693 0   
     length 6.49542   
     axis 0 0 -20   XYZ
    dof rx ry rz
    limits (-160.0 20.0)
           (-70.0 70.0)
           (-70.0 60.0)
  end
  begin
     id 8 
     name rtibia
     direction -0.34202 -0.939693 0   
     length 7.21712   
     axis 0 0 -20   XYZ
    dof rx
    limits (-10.0 170.0)
 end
 begin
     id 9 
     name rfoot
     direction -0.0825378 -0.226771 0.970444   
     length 1.89724  
     axis -90 -7.62852e-016 -20   XYZ
    dof rx rz
    limits (-45.0 90.0)
           (-20.0 70.0)
  end
  begin
     id 10 
     name rtoes
     direction -1.53515e-011 -4.22016e-011 1   
     length 0.955868   
     axis -90 -7.62852e-016 -20   XYZ
    dof rx
    limits (-90.0 20.0)
  end
  begin
     id 11 
     name lowerback
     direction -0.0104711 0.984802 -0.173368   
     length 1.84931   
     axis 0 0 0   XYZ
    dof rx ry rz
    limits (-20.0 45.0)
           (-30.0 30.0)
           (-30.0 30.0)
  end
  begin
     id 12 
     name upperback
     direction -0.00286433 0.999996 -0.000382853   
     length 1.85768   
     axis 0 0 0   XYZ
    dof rx ry rz
    limits (-20.0 45.0)
           (-30.0 30.0)
           (-30.0 30.0)
  end
  begin
     id 13 
     name thorax
     direction 0.00167534 0.996793 0.0800069   
     length 1.92   
     axis 0 0 0   XYZ
    dof rx ry rz
    limits (-20.0 45.0)
           (-30.0 30.0)
           (-30.0 30.0)
  end
  begin
     id 14 
     name lowerneck
     direction -0.0672491 0.995415 0.068018   
     length 1.58923   
     axis 0 0 0   XYZ
    dof rx ry rz
    limits (-20.0 45.0)
           (-30.0 30.0)
           (-30.0 30.0)
  end
  begin
     id 15 
     name upperneck
     direction 0.0958019 0.982476 -0.159884   
     length 1.60189   
     axis 0 0 0   XYZ
    dof rx ry rz
    limits (-20.0 45.0)
           (-30.0 30.0)
           (-30.0 30.0)
  end
  begin
     id 16
     name head
     direction 0.032989 0.997338 -0.0650226  
     length 1.61681  
     axis 0 0 0   XYZ
    dof rx ry rz
    limits (-20.0 45.0)
           (-30.0 30.0)
           (-30.0 30.0)
  end
  begin
     id 17 
     name lclavicle
     direction 0.954279 0.298875 -0.00496069  
     length 2.99449  
     axis 0 0 0   XYZ
    dof ry rz
    limits (-20.0 10.0)
           (0.0 20.0)
  end
  begin
     id 18 
     name lhumerus
     direction 1 -4.48985e-011 -4.2057e-027   
     length 4.79185   
     axis 180 -30 -90   XYZ
    dof rx ry rz
    limits (-60.0 90.0)
           (-90.0 90.0)
           (-90.0 90.0)
  end
  begin
     id 19
     name lradius
     direction 1 -4.48945e-011 1.15441e-028   
     length 2.65553   
     axis 180 -30 -90   XYZ
    dof rx
    limits (-10.0 170.0)
  end
  begin
     id 20
     name lwrist
     direction 1 -4.4899e-011 4.8894e-028   
     length 1.32777   
     axis -2.56392e-016 90 90   XYZ
    dof ry
    limits (-180.0 0.0)
 end
  begin
     id 21 
     name lhand
     direction 1 -4.48908e-011 9.7788e-028   
     length 0.743904   
     axis -6.23971e-016 90 90   XYZ
    dof rx rz
    limits (-90.0 90.0)
           (-45.0 45.0)
  end
  begin
     id 22 
     name lfingers
     direction 1 -4.49068e-011 1.95576e-027   
     length 0.599754   
     axis -1.24794e-015 90 90   XYZ
    dof rx
    limits (0.0 90.0)
  end
  begin
     id 23
     name lthumb
     direction 0.707107 -6.34883e-011 0.707107   
     length 0.861131   
     axis -90 45 2.85299e-015   XYZ
    dof rx rz
    limits (-45.0 45.0)
           (-45.0 45.0)
  end
  begin
     id 24 
     name rclavicle
     direction -0.957921 0.286916 0.00811568   
     length 3.06817  
     axis 0 0 0   XYZ 
    dof ry rz
    limits (-10.0 20.0)
           (-20.0 0.0)
  end
  begin
     id 25 
     name rhumerus
     direction -1 -4.48971e-011 -3.07942e-027  
     length 4.77254   
     axis 180 30 90   XYZ
    dof rx ry rz
    limits (-90.0 60.0)
           (-90.0 90.0)
           (-90.0 90.0)
  end
  begin
     id 26 
     name rradius
     direction -1 -4.48957e-011 -9.6815e-028   
     length 2.75995   
     axis 180 30 90   XYZ
    dof rx
    limits (-10.0 170.0)
  end
  begin
     id 27 
     name rwrist
     direction -1 -4.48979e-011 4.8894e-028   
     length 1.37997   
     axis -2.56392e-016 -90 -90   XYZ
    dof ry
    limits (-180.0 0.0)
  end
  begin
     id 28
     name rhand
     direction -1 -4.48906e-011 9.7788e-028   
     length 0.701619   
     axis -6.23971e-016 -90 -90   XYZ
    dof rx rz
    limits (-90.0 90.0)
           (-45.0 45.0)
  end
  begin
     id 29
     name rfingers
     direction -1 -4.49018e-011 1.95576e-027   
     length 0.565663   
     axis -1.24794e-015 -90 -90   XYZ
    dof rx
    limits (0.0 90.0)
  end
  begin
     id 30
     name rthumb
     direction -0.707107 -6.34881e-011 0.707107   
     length 0.812183   
     axis -90 -45 -2.85299e-015   XYZ
    dof rx rz
    limits (-45.0 45.0)
           (-45.0 45.0)
  end
:hierarchy
  begin
    root lhipjoint rhipjoint lowerback
    lhipjoint lfemur
    lfemur ltibia
    ltibia lfoot
    lfoot ltoes
    rhipjoint rfemur
    rfemur rtibia
    rtibia rfoot
    rfoot rtoes
    lowerback upperback
    upperback thorax
    thorax lowerneck lclavicle rclavicle
    lowerneck upperneck
    upperneck head
    lclavicle lhumerus
    lhumerus lradius
    lradius lwrist
    lwrist lhand lthumb
    lhand lfingers
    rclavicle rhumerus
    rhumerus rradius
    rradius rwrist
    rwrist rhand rthumb
    rhand rfingers
  end

#!OML:ASF F:\VICON\USERDATA\INSTALL\rory3\rory3.ASF
:FULLY-SPECIFIED
:DEGREES
49
root -15.9335 15.5631 10.1349 -178.748 61.1676 -181.722
lowerback 9.26108 -0.428791 -3.96387
upperback -0.622341 -1.02872 -0.613835
thorax -5.79715 -0.384821 1.73253
lowerneck -13.811 -6.08589 -9.84925
upperneck 29.5994 -6.54569 4.3956
head 12.6322 -3.13185 2.44838
rclavicle -8.59744e-014 8.34896e-015
rhumerus -31.1354 -2.54932 -87.536
rradius 23.4126
rwrist 17.3804
rhand -15.3406 15.0979
rfingers 7.12502
rthumb 10.8362 -14.6025
lclavicle -8.59744e-014 8.34896e-015
lhumerus -28.305 6.34896 84.8334
lradius 19.9766
lwrist -3.13423
lhand -12.7641 15.5867
lfingers 7.12502
lthumb 13.3206 45.141
rfemur -31.1627 7.59008 20.7449
rtibia 50.247
rfoot -15.5214 -17.1526
rtoes -7.20753
lfemur -6.55374 -7.75307 -26.9431
ltibia 27.5972
lfoot -22.5549 9.87983
ltoes -6.21488
50
root -15.8869 15.5637 10.1041 -178.753 61.0185 -181.753
lowerback 9.36919 -0.422942 -3.92284
upperback -0.645835 -1.02289 -0.622958
thorax -5.88432 -0.38128 1.70083
lowerneck -13.8209 -6.10841 -9.88745
upperneck 29.6538 -6.55693 4.37825
head 12.6592 -3.14167 2.44707
rclavicle 2.20651e-014 -1.23246e-014
rhumerus -31.3308 -2.66937 -87.5196
rradius 23.3764
rwrist 17.1447
rhand -14.7214 16.3541
rfingers 7.12502
rthumb 11.4334 -13.3141
lclavicle 2.20651e-014 -1.23246e-014
lhumerus -28.5015 6.89441 84.5599
lradius 19.7252
lwrist -3.51802
lhand -12.1557 15.1764
lfingers 7.12502
lthumb 13.9069 44.6914
rfemur -31.5312 7.70287 20.6394
rtibia 49.1685
rfoot -15.6371 -17.0929
rtoes -7.01166
lfemur -6.04765 -7.62356 -26.9757
ltibia 26.9658
lfoot -22.4646 10.0516
ltoes -8.00488
51
root -15.8335 15.5689 10.0725 -178.607 60.9823 -181.545
lowerback 9.43075 -0.360446 -3.8237
upperback -0.610818 -0.929024 -0.599992
thorax -5.88856 -0.338207 1.65653
lowerneck -13.7899 -6.15392 -9.89656
upperneck 29.5878 -6.63134 4.39947
head 12.6335 -3.17394 2.44441
rclavicle 4.64162e-014 0
rhumerus -31.4328 -3.14946 -87.3714
rradius 23.2485
rwrist 17.3136
rhand -14.6666 16.4195
rfingers 7.12502
rthumb 11.4863 -13.2458
lclavicle 4.64162e-014 0
lhumerus -28.7024 6.90941 84.5031
lradius 19.6099
lwrist -3.61763
lhand -11.8902 14.9515
lfingers 7.12502
lthumb 14.1628 44.4488
rfemur -31.7878 8.15911 20.6436
rtibia 48.0148
rfoot -15.3385 -17.3337
rtoes -7.66015
lfemur -5.44895 -7.52339 -26.9005
ltibia 26.3438
lfoot -22.1131 9.85268
ltoes -7.18373
52
root -15.7778 15.574 10.0355 -178.775 60.9594 -181.69
lowerback 9.44329 -0.313683 -3.79577
upperback -0.572319 -0.866632 -0.691372
thorax -5.86028 -0.31009 1.53617
lowerneck -13.7948 -6.17193 -9.79919
upperneck 29.6167 -6.69361 4.43789
head 12.6481 -3.1845 2.43357
rclavicle 1.20762e-014 6.36111e-015
rhumerus -31.6028 -3.77898 -87.2443
rradius 23.0945
rwrist 17.8593
rhand -15.2538 15.3406
rfingers 7.12502
rthumb 10.9199 -14.3555
lclavicle 1.20762e-014 6.36111e-015
lhumerus -28.9734 6.39339 84.5561
lradius 19.6739
lwrist -3.38991
lhand -11.9392 15.088
lfingers 7.12502
lthumb 14.1156 44.5885
rfemur -32.0452 8.45555 20.4481
rtibia 46.8223
rfoot -14.5335 -17.6114
rtoes -9.70084
lfemur -4.78885 -7.65134 -27.0684
ltibia 25.6898
lfoot -21.7738 9.52966
ltoes -5.10026
53
root -15.7228 15.5768 9.99631 -179.223 60.8381 -182.18
lowerback 9.4755 -0.320329 -3.92082
upperback -0.562583 -0.894607 -0.791851
thorax -5.86674 -0.320563 1.50543
lowerneck -13.8457 -6.16327 -9.73221
upperneck 29.687 -6.6784 4.39607
head 12.6814 -3.17352 2.40877
rclavicle -2.87741e-014 5.1684e-015
rhumerus -31.8725 -3.88541 -87.2467
rradius 23.0926
rwrist 17.8883
rhand -15.2878 15.3814
rfingers 7.12502
rthumb 10.8872 -14.3163
lclavicle -2.87741e-014 5.1684e-015
lhumerus -29.286 6.14826 84.5966
lradius 19.737
lwrist -3.33815
lhand -11.8901 15.2687
lfingers 7.12502
lthumb 14.1629 44.7659
rfemur -32.3307 8.51292 20.0457
rtibia 45.6372
rfoot -14.0921 -17.564
rtoes -10.6711
lfemur -4.10206 -7.80159 -27.4179
ltibia 24.94
lfoot -21.5398 9.39309
ltoes -4.01566
54
root -15.6659 15.5792 9.95939 -179.461 60.6973 -182.379
lowerback 9.55927 -0.329048 -4.01003
upperback -0.515197 -0.917728 -0.790649
thorax -5.86165 -0.329241 1.56083
lowerneck -13.8854 -6.15873 -9.68791
upperneck 29.6066 -6.66352 4.32713
head 12.6505 -3.17233 2.37464
rclavicle 6.5102e-015 -3.97569e-016
rhumerus -32.0197 -4.03253 -87.1262
rradius 22.9549
rwrist 17.887
rhand -14.9703 16.3358
rfingers 7.12502
rthumb 11.1934 -13.3457
lclavicle 6.5102e-015 -3.97569e-016
lhumerus -29.5081 6.27862 84.5996
lradius 19.708
lwrist -3.60374
lhand -11.8701 15.1773
lfingers 7.12502
lthumb 14.1822 44.6731
rfemur -32.5699 8.6599 19.7939
rtibia 44.4486
rfoot -13.7667 -17.6783
rtoes -10.7636
lfemur -3.32023 -7.87461 -27.6047
ltibia 24.1269
lfoot -21.3109 9.41337
ltoes -4.01128
55
root -15.6087 15.5773 9.92587 -179.738 60.5932 -182.601
lowerback 9.69838 -0.313354 -4.12939
upperback -0.479538 -0.915879 -0.80809
thorax -5.90152 -0.323771 1.6108
lowerneck -13.8894 -6.15656 -9.67321
upperneck 29.5384 -6.67821 4.36302
head 12.6251 -3.1737 2.38253
rclavicle 8.44835e-015 7.55382e-015
rhumerus -32.1606 -4.30196 -86.9752
rradius 22.7584
rwrist 18.1417
rhand -15.319 15.7637
rfingers 7.12502
rthumb 10.8571 -13.9357
lclavicle 8.44835e-015 7.55382e-015
lhumerus -29.7212 6.4095 84.5631
lradius 19.6505
lwrist -3.8101
lhand -11.8644 14.8973
lfingers 7.12502
lthumb 14.1877 44.3928
rfemur -32.8171 8.8838 19.561
rtibia 43.2673
rfoot -13.0886 -18.1004
rtoes -11.6123
lfemur -2.52574 -7.95899 -27.7836
ltibia 23.2886
lfoot -21.0946 9.45557
ltoes -3.91329
56
root -15.5507 15.5758 9.89117 -180.018 60.4147 -182.8
lowerback 9.90946 -0.309532 -4.23684
upperback -0.474216 -0.932483 -0.79274
thorax -6.01271 -0.325609 1.69222
lowerneck -13.9593 -6.19016 -9.75705
upperneck 29.6366 -6.70952 4.41456
head 12.6892 -3.18769 2.4116
rclavicle -2.64881e-014 7.15625e-015
rhumerus -32.4115 -4.26893 -86.9058
rradius 22.6646
rwrist 18.0644
rhand -15.5702 15.617
rfingers 7.12502
rthumb 10.6148 -14.0949
lclavicle -2.64881e-014 7.15625e-015
lhumerus -29.9961 6.79114 84.4984
lradius 19.5819
lwrist -4.20918
lhand -11.8111 14.6546
lfingers 7.12502
lthumb 14.239 44.1465
rfemur -32.9921 8.98299 19.3238
rtibia 42.0863
rfoot -12.1679 -18.341
rtoes -12.861
lfemur -1.73703 -8.04141 -27.9369
ltibia 22.4921
lfoot -20.936 9.31201
ltoes -3.18067
57
root -15.49 15.5772 9.85323 -180.321 60.203 -183.075
lowerback 10.0797 -0.293537 -4.42388
upperback -0.484318 -0.938956 -0.725713
thorax -6.1158 -0.31932 1.8709
lowerneck -14.0225 -6.25554 -9.92311
upperneck 29.6642 -6.75238 4.41668
head 12.7268 -3.2241 2.43211
rclavicle -7.85199e-015 -7.15625e-015
rhumerus -32.6968 -4.1971 -86.7326
rradius 22.6245
rwrist 17.9564
rhand -15.316 16.2096
rfingers 7.12502
rthumb 10.86 -13.4896
lclavicle -7.85199e-015 -7.15625e-015
lhumerus -30.2871 7.41813 84.4317
lradius 19.565
lwrist -4.81002
lhand -11.7526 14.621
lfingers 7.12502
lthumb 14.2954 44.1089
rfemur -33.2058 9.06781 18.9817
rtibia 40.9206
rfoot -11.5693 -18.3939
rtoes -12.9141
lfemur -1.00735 -7.9985 -28.1276
ltibia 21.7403
lfoot -20.6793 9.13256
ltoes -3.12645
58
root -15.4292 15.5779 9.81717 -180.602 60.0125 -183.461
lowerback 10.1676 -0.266203 -4.61091
upperback -0.528927 -0.931914 -0.737984
thorax -6.2111 -0.306964 1.96342
lowerneck -14.0265 -6.32129 -9.98296
upperneck 29.5756 -6.84894 4.46003
head 12.7046 -3.26962 2.4415
rclavicle -1.23246e-014 -1.47101e-014
rhumerus -32.9504 -4.51472 -86.4328
rradius 22.5626
rwrist 18.4082
rhand -15.1488 15.6637
rfingers 7.12502
rthumb 11.0212 -14.0269
lclavicle -1.23246e-014 -1.47101e-014
lhumerus -30.5716 7.50824 84.4446
lradius 19.6205
lwrist -4.92937
lhand -11.7351 14.759
lfingers 7.12502
lthumb 14.3122 44.2457
rfemur -33.5619 9.18357 18.5435
rtibia 39.7631
rfoot -11.5221 -18.4303
rtoes -10.5051
lfemur -0.427115 -7.92557 -28.3484
ltibia 20.9892
lfoot -20.2372 9.03839
ltoes -3.28717
